<svg xmlns="http://www.w3.org/2000/svg" viewBox="0 0 24 24" fill="currentColor">
  <path d="M12 1.85c-.27 0-.55.07-.78.2L3.78 6.35C3.3 6.63 3 7.15 3 7.7v8.6c0 .55.3 1.07.78 1.35l7.44 4.3c.23.13.5.2.78.2s.55-.07.78-.2l7.44-4.3c.48-.28.78-.8.78-1.35V7.7c0-.55-.3-1.07-.78-1.35l-7.44-4.3c-.23-.13-.5-.2-.78-.2zm0 2.3c.15 0 .3.04.43.12l6.88 4.17c.27.16.43.45.43.76v8.32c0 .31-.16.6-.43.76l-6.88 4.17c-.13.08-.28.12-.43.12s-.3-.04-.43-.12l-6.88-4.17c-.27-.16-.43-.45-.43-.76V9.2c0-.31.16-.6.43-.76l6.88-4.17c.13-.08.28-.12.43-.12z"/>
</svg> 