<svg xmlns="http://www.w3.org/2000/svg" viewBox="0 0 24 24" fill="currentColor">
  <path d="M17.128 0a10.134 10.134 0 0 0-2.755.403l-.063.02A10.922 10.922 0 0 0 12.6.258C11.422.238 10.41.524 9.594 1 8.79.721 7.122.24 5.364.336 4.14.403 2.804.775 1.814 1.82.827 2.865.305 4.482.415 6.682c.03.607.203 1.597.49 2.879s.69 2.783 1.193 4.152c.503 1.37 1.054 2.6 1.915 3.436.43.419 1.022.771 1.72.742.49-.02.933-.235 1.315-.552.186.245.385.352.566.451.228.125.45.21.68.266.413.103 1.12.241 1.948.1.282-.047.579-.139.875-.27.011.33.024.653.037.98.041 1.036.067 1.993.378 2.832.05.137.187.843.727 1.466.54.624 1.598 1.013 2.803.755.85-.182 1.931-.51 2.649-1.532.71-1.01 1.03-2.459 1.093-4.809.016-.127.035-.235.055-.336l.169.015h.02c.907.041 1.891-.088 2.713-.47.728-.337 1.279-.678 1.68-1.283.1-.15.21-.331.24-.643s-.149-.8-.446-1.025c-.595-.452-.969-.28-1.37-.197a6.27 6.27 0 0 1-1.202.146c1.156-1.947 1.985-4.015 2.458-5.845.28-1.08.437-2.076.45-2.947.013-.871-.058-1.642-.58-2.309C21.36.6 19.067.024 17.293.004c-.055-.001-.11-.002-.165-.001zm-.047.64c1.678-.016 3.822.455 5.361 2.422.346.442.449 1.088.437 1.884-.013.795-.16 1.747-.429 2.79-.522 2.02-1.508 4.375-2.897 6.488a.756.756 0 0 0 .158.086c.29.12.951.223 2.27-.048.332-.07.575-.117.827.075a.52.52 0 0 1 .183.425.704.704 0 0 1-.13.336c-.255.383-.758.746-1.403 1.045-.571.266-1.39.405-2.116.413-.364.004-.7-.024-.985-.113l-.018-.007c-.11 1.06-.363 3.153-.528 4.108-.132.77-.363 1.382-.804 1.84-.44.458-1.063.734-1.901.914-1.038.223-1.795-.017-2.283-.428-.487-.41-.71-.954-.844-1.287-.092-.23-.14-.528-.186-.926-.046-.398-.08-.885-.103-1.434a51.426 51.426 0 0 1-.03-2.523 3.061 3.061 0 0 1-1.552.76c-.689.117-1.304.002-1.671-.09a2.276 2.276 0 0 1-.52-.201c-.17-.091-.332-.194-.44-.397a.56.56 0 0 1-.057-.381.61.61 0 0 1 .218-.331c.198-.161.46-.251.855-.333.719-.148.97-.249 1.123-.37.13-.104.277-.314.537-.622a1.16 1.16 0 0 1-.003-.041 2.96 2.96 0 0 1-1.33-.358c-.15.158-.916.968-1.85 2.092-.393.47-.827.74-1.285.759-.458.02-.872-.211-1.224-.552-.703-.683-1.264-1.858-1.753-3.186-.488-1.328-.885-2.807-1.167-4.067-.283-1.26-.45-2.276-.474-2.766-.105-2.082.382-3.485 1.217-4.37.836-.885 1.982-1.22 3.099-1.284 2.005-.115 3.909.584 4.294.734.742-.504 1.698-.818 2.892-.798a7.39 7.39 0 0 1 1.681.218l.02-.009a6.854 6.854 0 0 1 .739-.214A9.626 9.626 0 0 1 17.08.642zm.152 1.583c-.059.003-.12.009-.18.014-.239.02-.521.054-.739.134-.218.079-.392.181-.553.267l-.051.027c-.355.194-.686.43-.987.705-.245.226-.424.41-.504.599a.527.527 0 0 0-.037.247.473.473 0 0 0 .055.147.454.454 0 0 0 .095.13.507.507 0 0 0 .126.089 8.88 8.88 0 0 0 .316.147c.222.095.47.184.745.256.276.072.582.126.914.155.332.029.682.023 1.043-.024.362-.047.721-.132 1.056-.257.335-.125.644-.293.914-.504.402-.315.796-.825.796-1.426 0-.427-.145-.84-.502-1.19-.357-.35-.893-.62-1.593-.75a6.294 6.294 0 0 0-.914-.084z"/>
</svg> 