<svg xmlns="http://www.w3.org/2000/svg" viewBox="0 0 24 24" fill="currentColor">
  <path d="M12 2C6.48 2 2 6.48 2 12s4.48 10 10 10 10-4.48 10-10S17.52 2 12 2zm-1 14.5v2c0 .28-.22.5-.5.5h-2c-.28 0-.5-.22-.5-.5v-2c0-.28.22-.5.5-.5h2c.28 0 .5.22.5.5zm5.5 0v2c0 .28-.22.5-.5.5h-2c-.28 0-.5-.22-.5-.5v-2c0-.28.22-.5.5-.5h2c.28 0 .5.22.5.5zM12 4c.28 0 .5.22.5.5v2c0 .28-.22.5-.5.5s-.5-.22-.5-.5v-2c0-.28.22-.5.5-.5zm0 4c3.31 0 6 2.69 6 6 0 2.97-2.17 5.43-5 5.91v-2.01c1.84-.43 3-2.01 3-3.9 0-2.21-1.79-4-4-4s-4 1.79-4 4c0 1.89 1.16 3.47 3 3.9v2.01C7.17 19.43 5 16.97 5 14c0-3.31 2.69-6 6-6z"/>
</svg> 